<svg width="40" height="40" viewBox="0 0 40 40" fill="none" xmlns="http://www.w3.org/2000/svg">
<path d="M21.6666 15H18.3333V11.6667H21.6666M21.6666 28.3333H18.3333V18.3333H21.6666M19.9999 3.33334C17.8112 3.33334 15.644 3.76444 13.6219 4.60202C11.5998 5.4396 9.76245 6.66725 8.21481 8.2149C5.0892 11.3405 3.33325 15.5797 3.33325 20C3.33325 24.4203 5.0892 28.6595 8.21481 31.7851C9.76245 33.3328 11.5998 34.5604 13.6219 35.398C15.644 36.2356 17.8112 36.6667 19.9999 36.6667C24.4202 36.6667 28.6594 34.9107 31.785 31.7851C34.9106 28.6595 36.6666 24.4203 36.6666 20C36.6666 17.8113 36.2355 15.644 35.3979 13.622C34.5603 11.5999 33.3327 9.76254 31.785 8.2149C30.2374 6.66725 28.4001 5.4396 26.378 4.60202C24.3559 3.76444 22.1886 3.33334 19.9999 3.33334Z" fill="#757575"/>
</svg>
