<svg width="40" height="40" viewBox="0 0 40 40" fill="none" xmlns="http://www.w3.org/2000/svg">
<path d="M13.3334 21.6667H26.6667V18.3333H13.3334V21.6667ZM13.3334 26.6667H26.6667V23.3333H13.3334V26.6667ZM13.3334 31.6667H21.6667V28.3333H13.3334V31.6667ZM10.0001 36.6667C9.08341 36.6667 8.29897 36.3406 7.64675 35.6883C6.99453 35.0361 6.66786 34.2511 6.66675 33.3333V6.66668C6.66675 5.75001 6.99341 4.96557 7.64675 4.31334C8.30008 3.66112 9.08453 3.33445 10.0001 3.33334H23.3334L33.3334 13.3333V33.3333C33.3334 34.25 33.0073 35.035 32.3551 35.6883C31.7029 36.3417 30.9179 36.6678 30.0001 36.6667H10.0001ZM21.6667 15H30.0001L21.6667 6.66668V15Z" fill="#757575"/>
</svg>
