<svg width="40" height="40" viewBox="0 0 40 40" fill="none" xmlns="http://www.w3.org/2000/svg">
<path d="M20.0001 20C18.1667 20 16.5973 19.3472 15.2917 18.0417C13.9862 16.7361 13.3334 15.1667 13.3334 13.3333C13.3334 11.5 13.9862 9.93056 15.2917 8.62501C16.5973 7.31945 18.1667 6.66667 20.0001 6.66667C21.8334 6.66667 23.4029 7.31945 24.7084 8.62501C26.014 9.93056 26.6667 11.5 26.6667 13.3333C26.6667 15.1667 26.014 16.7361 24.7084 18.0417C23.4029 19.3472 21.8334 20 20.0001 20ZM6.66675 33.3333V28.6667C6.66675 27.7222 6.91008 26.8544 7.39675 26.0633C7.88342 25.2722 8.52897 24.6678 9.33341 24.25C11.0556 23.3889 12.8056 22.7433 14.5834 22.3133C16.3612 21.8833 18.1667 21.6678 20.0001 21.6667C21.8334 21.6656 23.639 21.8811 25.4167 22.3133C27.1945 22.7456 28.9445 23.3911 30.6667 24.25C31.4723 24.6667 32.1184 25.2711 32.6051 26.0633C33.0917 26.8556 33.3345 27.7233 33.3334 28.6667V33.3333H6.66675ZM10.0001 30H30.0001V28.6667C30.0001 28.3611 29.924 28.0833 29.7717 27.8333C29.6195 27.5833 29.4179 27.3889 29.1667 27.25C27.6667 26.5 26.1529 25.9378 24.6251 25.5633C23.0973 25.1889 21.5556 25.0011 20.0001 25C18.4445 24.9989 16.9029 25.1867 15.3751 25.5633C13.8473 25.94 12.3334 26.5022 10.8334 27.25C10.5834 27.3889 10.3817 27.5833 10.2284 27.8333C10.0751 28.0833 9.99897 28.3611 10.0001 28.6667V30ZM20.0001 16.6667C20.9167 16.6667 21.7017 16.3406 22.3551 15.6883C23.0084 15.0361 23.3345 14.2511 23.3334 13.3333C23.3323 12.4156 23.0062 11.6311 22.3551 10.98C21.704 10.3289 20.919 10.0022 20.0001 10C19.0812 9.99778 18.2967 10.3244 17.6467 10.98C16.9967 11.6356 16.6701 12.42 16.6667 13.3333C16.6634 14.2467 16.9901 15.0317 17.6467 15.6883C18.3034 16.345 19.0879 16.6711 20.0001 16.6667Z" fill="#757575"/>
</svg>
