<svg width="40" height="40" viewBox="0 0 40 40" fill="none" xmlns="http://www.w3.org/2000/svg">
<path d="M5.00007 20C5.00007 17.2433 7.2434 15 10.0001 15H17.9401C16.2334 13.095 16.3084 9.95832 18.1317 8.13166C19.0694 7.1943 20.3409 6.66772 21.6667 6.66772C22.9926 6.66772 24.2641 7.1943 25.2017 8.13166L37.0701 20L25.2017 31.8683C24.2641 32.8057 22.9926 33.3323 21.6667 33.3323C20.3409 33.3323 19.0694 32.8057 18.1317 31.8683C16.3067 30.045 16.2317 26.9033 17.9401 25H10.0001C7.2434 25 5.00007 22.7567 5.00007 20ZM25.9767 18.3333H10.0001C9.57094 18.3525 9.16574 18.5365 8.86886 18.847C8.57198 19.1574 8.40629 19.5704 8.40629 20C8.40629 20.4296 8.57198 20.8426 8.86886 21.153C9.16574 21.4635 9.57094 21.6475 10.0001 21.6667H25.9767L20.4884 27.155C20.185 27.4723 20.0157 27.8943 20.0157 28.3333C20.0157 28.7723 20.185 29.1944 20.4884 29.5117C20.8009 29.8241 21.2248 29.9996 21.6667 29.9996C22.1087 29.9996 22.5325 29.8241 22.8451 29.5117L32.3567 20L22.8451 10.4883C22.5325 10.1759 22.1087 10.0003 21.6667 10.0003C21.2248 10.0003 20.8009 10.1759 20.4884 10.4883C20.185 10.8056 20.0157 11.2277 20.0157 11.6667C20.0157 12.1056 20.185 12.5277 20.4884 12.845L25.9767 18.3333Z" fill="#757575"/>
</svg>
