<svg width="40" height="40" viewBox="0 0 40 40" fill="none" xmlns="http://www.w3.org/2000/svg">
<path d="M36.7734 1.5625L28.7656 3.89141L32.0078 1.69687C29.9609 2.15937 27.3749 3.06406 24.1249 4.52422L18.8203 10.0547L20.7031 6.19141C18.8828 7.20391 16.9531 8.53125 15.0937 10.0859L13.8593 15.1094L13.5937 11.3906C11.7578 13.0781 10.0312 14.9531 8.60151 16.9297C7.09917 19 5.92495 21.1875 5.33667 23.3672L3.13979 21.8984C3.33667 23.75 3.94526 25.3594 4.9437 26.8359L2.31714 26.0313C2.91401 27.8672 3.8898 29.0547 5.5398 30.0156C4.61558 32.6172 4.18198 35.3359 3.71636 38.0469L5.15386 38.2891C6.82105 21.6719 18.5859 11.0781 29.2187 6.38438L29.7578 7.74219C20.25 12 12.8593 19.1875 8.99214 29.5469C10.4062 29.5547 11.789 29.3828 13.0703 29.0547L13.4531 24.2969L14.4765 28.6328C15.3281 28.3203 16.1093 27.9453 16.8046 27.5078L15.1875 24.1094L17.75 26.8281C18.375 26.3281 18.8906 25.7656 19.2812 25.1484C21.6562 21.4375 24.1406 17.75 29.0312 14.6641L25.4609 13.3984L30.9375 13.5625C31.8281 13.1094 32.7656 12.5547 33.4765 12.0312L29.5937 11.7188L35.4296 10.3437C35.8828 9.89062 36.3046 9.41406 36.6875 8.9375C38.039 7.22344 38.9531 5.43906 38.7343 3.81641C38.6328 3.00469 38.1484 2.24141 37.3593 1.81406C37.164 1.7125 36.9531 1.62266 36.7734 1.5625Z" fill="#000000"/>
</svg>
